<?xml version="1.0" encoding="utf-8"?>
<!DOCTYPE svg PUBLIC "-//W3C//DTD SVG 1.1//EN" "http://www.w3.org/Graphics/SVG/1.1/DTD/svg11.dtd">
<svg version="1.1" id="Ebene_1" xmlns="http://www.w3.org/2000/svg" xmlns:xlink="http://www.w3.org/1999/xlink" x="0px" y="0px"
	 width="739.103px" height="154.644px" viewBox="0 0 739.103 154.644" enable-background="new 0 0 739.103 154.644"
	 xml:space="preserve">
<path fill="#003A71" d="M221.768,41.593c-7.411,0-14.278,1.437-20.388,4.289c-5.032,2.352-9.449,5.501-13.146,9.374
	c-3.232-3.944-7.18-7.105-11.765-9.431c-5.558-2.816-11.886-4.231-18.818-4.231c-11.581,0-21.277,2.171-28.864,6.447h-0.031
	l-0.288,0.167l-0.27,0.169c-1.558,0.915-3.109,1.985-4.559,3.143l-0.306,0.266c-1.167,0.955-2.334,2.069-3.462,3.276
	c-0.257,0.274-0.508,0.557-0.757,0.84c-0.94,1.088-1.773,2.176-2.568,3.321l-0.221,0.318c-0.181,0.252-0.363,0.509-0.53,0.765
	c-1,1.583-1.831,3.064-2.512,4.528l-0.149,0.358c-0.677,1.508-1.266,3.042-1.8,4.657c-0.177,0.538-0.336,1.1-0.496,1.67
	l-0.124,0.464c-0.305,1.044-0.561,2.104-0.809,3.21c-0.168,0.849-0.349,1.697-0.5,2.578c-0.177,1.065-0.314,2.158-0.442,3.263
	l-0.084,0.726c-0.098,0.654-0.177,1.308-0.222,1.989c-0.146,1.822-0.221,3.692-0.242,5.554c-0.018,0.429-0.036,0.624-0.036,0.818
	v50.803c0,3.555,1.207,6.557,3.585,8.914c2.357,2.365,5.352,3.555,8.893,3.555c3.697,0,6.738-1.212,9.046-3.6
	c2.282-2.344,3.444-5.323,3.444-8.87V86.609c0-6.451,1.928-11.81,5.743-15.896c3.798-4.09,8.608-6.071,14.715-6.071
	c5.841,0,10.347,1.716,13.769,5.231c3.395,3.511,5.116,8.879,5.116,15.966v55.083c0,3.555,1.21,6.557,3.586,8.914
	c2.356,2.365,5.363,3.555,8.905,3.555c3.683,0,6.726-1.212,9.038-3.6c2.277-2.344,3.444-5.323,3.444-8.87V86.609
	c0-6.451,1.933-11.81,5.744-15.896c3.794-4.09,8.547-6.071,14.516-6.071c5.85,0,10.359,1.716,13.769,5.231
	c3.409,3.511,5.134,8.879,5.134,15.966v55.083c0,3.555,1.202,6.557,3.577,8.914c2.356,2.365,5.35,3.555,8.888,3.555
	c3.7,0,6.743-1.212,9.055-3.6c2.281-2.344,3.44-5.323,3.44-8.87V85.84c0-13.738-3.705-24.646-11.015-32.432
	C243.415,45.573,233.652,41.593,221.768,41.593"/>
<path fill="#003A71" d="M82.285,98.273c-6.177-5.293-16.599-9.44-30.964-12.328c-6.61-1.389-11.704-2.799-15.113-4.196
	c-3.895-1.623-5.518-3.038-6.181-3.931c-0.938-1.278-1.407-2.87-1.407-4.877c0-2.583,1.358-4.497,4.25-6
	c3.378-1.791,7.843-2.689,13.304-2.689c4.824,0,8.945,0.558,12.244,1.685c3.241,1.101,6.362,3.02,9.25,5.687
	c3.206,2.896,6.849,4.359,10.859,4.359c2.768,0,5.116-0.694,6.968-2.052c2.914-2.375,4.369-5.089,4.369-8.104
	c0-2.675-1.048-5.319-3.108-7.853c-4.104-5.067-9.741-9.082-16.745-11.938c-6.898-2.821-14.795-4.245-23.457-4.245
	c-7.088,0-13.871,1.15-20.145,3.414c-6.473,2.356-11.771,5.925-15.768,10.603c-4.117,4.859-6.221,10.806-6.221,17.712
	c0,16.935,13.171,28.046,39.139,33.034c9.113,1.737,15.591,3.833,19.243,6.252c3.272,2.158,4.78,4.603,4.78,7.698
	c0,3.179-1.508,5.576-4.78,7.543c-3.582,2.171-8.861,3.268-15.661,3.268c-5.16,0-10.081-0.938-14.587-2.772
	c-4.474-1.831-7.844-3.966-10.01-6.359c-2.905-2.905-6.013-4.341-9.285-4.341c-2.645,0-5.439,1.083-8.317,3.214
	C1.662,123.516,0,126.756,0,130.709c0,3.042,1.105,5.695,3.285,7.866c4.621,4.621,11.05,8.388,19.102,11.213
	c7.945,2.776,16.545,4.188,25.517,4.188c9.068,0,16.978-1.468,23.521-4.36c6.664-2.963,11.806-7.097,15.29-12.327
	c3.493-5.231,5.262-11.142,5.262-17.545C91.977,110.994,88.714,103.778,82.285,98.273"/>
<path fill="#003A71" d="M300.299,42.543c-3.516,0-6.5,1.159-8.865,3.445c-2.397,2.325-3.608,5.372-3.608,9.042v85.703
	c0,3.542,1.211,6.544,3.569,8.906c2.373,2.369,5.367,3.568,8.904,3.568c3.679,0,6.721-1.202,9.041-3.59
	c2.291-2.37,3.459-5.359,3.459-8.883V55.03c0-3.653-1.176-6.686-3.479-9.002C306.993,43.711,303.955,42.543,300.299,42.543"/>
<path fill="#003A71" d="M300.299,0c-4.18,0-7.822,1.525-10.823,4.522c-3.012,3.012-4.542,6.664-4.542,10.847
	c0,4.187,1.53,7.839,4.551,10.828c3.002,3.015,6.645,4.555,10.814,4.555c4.187,0,7.835-1.54,10.85-4.555
	c3.008-2.998,4.533-6.641,4.533-10.828c0-4.174-1.525-7.831-4.522-10.841C308.146,1.525,304.504,0,300.299,0"/>
<path fill="#003A71" d="M418.19,47.7c-7.438-4.051-15.904-6.106-25.163-6.106c-34.462,0-53.47,16.107-54.981,46.604l-0.019,0.013
	l-0.021,0.38l-0.009,0.389c-0.106,2.874-0.066,5.292-0.032,7.057c0.018,0.703,0.032,1.322,0.032,1.844v43.04
	c0,3.564,1.197,6.562,3.577,8.91c2.352,2.374,5.35,3.564,8.887,3.564c3.706,0,6.744-1.208,9.038-3.6
	c2.3-2.344,3.449-5.323,3.449-8.874v-54.31c0-4.042,1.118-7.755,3.311-11.014c2.207-3.298,5.364-5.986,9.374-7.972
	c4.016-1.98,8.583-2.98,13.543-2.98c8.485,0,15.352,2.436,20.406,7.256c5.013,4.775,7.547,12.058,7.547,21.657v47.364
	c0,3.564,1.198,6.562,3.573,8.91c2.365,2.374,5.372,3.564,8.918,3.564s6.544-1.194,8.905-3.569c2.37-2.348,3.563-5.341,3.563-8.905
	V93.555c0-10.806-2.108-20.202-6.283-27.94C431.597,57.815,425.676,51.785,418.19,47.7"/>
<path fill="#003A71" d="M507.086,129.286h-6.549c-3.285,0-6.009-1.375-8.326-4.205c-2.439-3.011-3.63-6.693-3.63-11.23V65.098
	h13.694c3.379,0,6.167-1.008,8.355-3.002c2.234-2.091,3.37-4.691,3.37-7.742c0-3.325-1.136-6.062-3.36-8.113
	c-2.207-2.012-5.009-3.033-8.365-3.033h-13.694V31.246c0-3.532-1.167-6.499-3.462-8.816c-2.339-2.313-5.305-3.493-8.838-3.493
	c-3.537,0-6.499,1.181-8.813,3.48c-2.313,2.308-3.475,5.275-3.475,8.829v82.604c0,7.472,1.592,14.282,4.725,20.286
	c3.18,6.079,7.614,10.921,13.182,14.409c5.576,3.542,11.851,5.329,18.637,5.329h3.485c3.979,0,7.312-1.119,9.903-3.334
	c2.719-2.299,4.116-5.315,4.116-8.954c0-3.467-1.038-6.398-3.086-8.702C512.853,130.493,510.198,129.286,507.086,129.286"/>
<path fill="#003A71" d="M596.36,0.663c-4.2,0-7.843,1.521-10.85,4.527c-3.011,3.016-4.52,6.664-4.52,10.851
	c0,4.179,1.527,7.822,4.52,10.828c3.007,3.011,6.663,4.546,10.85,4.546c4.171,0,7.811-1.535,10.83-4.546
	c3.01-2.998,4.54-6.641,4.54-10.828s-1.53-7.839-4.54-10.851C604.184,2.184,600.54,0.663,596.36,0.663"/>
<path fill="#003A71" d="M596.36,43.879c-3.522,0-6.503,1.159-8.881,3.431c-2.402,2.339-3.612,5.377-3.612,9.06v85.699
	c0,3.542,1.201,6.535,3.571,8.905c2.388,2.365,5.386,3.572,8.922,3.572c3.676,0,6.718-1.22,9.021-3.611
	c2.285-2.361,3.444-5.342,3.444-8.866V56.37c0-3.66-1.163-6.689-3.457-9.011C603.047,45.051,600.014,43.879,596.36,43.879"/>
<path fill="#009C6C" d="M546.522,123.127c-4.206,0-7.85,1.525-10.842,4.523c-3.007,3.024-4.532,6.68-4.532,10.854
	c0,4.178,1.525,7.826,4.532,10.82c3.011,3.028,6.654,4.554,10.842,4.554c4.168,0,7.803-1.526,10.823-4.554
	c3.021-2.985,4.536-6.628,4.536-10.82c0-4.183-1.516-7.844-4.536-10.854C554.353,124.652,550.705,123.127,546.522,123.127"/>
<path fill="#003A71" d="M732.749,69.608c-4.793-8.489-11.483-15.206-19.893-19.981c-8.388-4.753-17.987-7.167-28.547-7.167
	c-10.693,0-20.396,2.415-28.858,7.167c-8.471,4.766-15.157,11.492-19.883,19.994c-4.691,8.437-7.076,18.203-7.076,29.033
	c0,10.682,2.385,20.374,7.076,28.815c4.717,8.493,11.406,15.223,19.883,19.999c8.463,4.758,18.165,7.177,28.858,7.177
	c10.696,0,20.367-2.419,28.754-7.181c8.411-4.78,15.064-11.501,19.787-19.994c4.254-7.694,6.252-16.846,6.252-28.815
	C739.103,86.534,737.073,77.31,732.749,69.608 M700.564,69.356c4.744,2.812,8.489,6.796,11.12,11.845
	c2.698,5.128,4.046,10.996,4.046,17.452c0,6.433-1.348,12.27-4.033,17.323c-2.64,4.992-6.38,8.949-11.133,11.757
	c-4.758,2.825-10.224,4.245-16.255,4.245c-6.043,0-11.521-1.42-16.279-4.245c-4.758-2.808-8.538-6.769-11.235-11.774
	c-2.731-5.032-4.119-10.851-4.119-17.306c0-6.474,1.388-12.336,4.124-17.421c2.714-5.063,6.481-9.064,11.23-11.876
	c4.789-2.826,10.263-4.258,16.279-4.258C690.32,65.098,695.784,66.531,700.564,69.356"/>
</svg>
